<svg xmlns="http://www.w3.org/2000/svg" viewBox="0 0 300 300" width="300" height="300"><defs></defs><g>
<g>
	<g>
		<g transform="matrix(13.351626866,0,0,13.351626866,-381.803196118,-17.012573988)">
			<path d="M0,0C0,0 24,0 24,0 C24,0 24,24 24,24 C24,24 0,24 0,24 C0,24 0,0 0,0 Z" transform="matrix(1,0,0,1,27.830591541,7.301331385)" fill="none"/>
			<path d="M39.830592,10.508781C39.830592,7.195073 37.1443,4.508781 33.830592,4.508781 C33.830592,4.508781 30.830592,4.508781 30.830592,4.508781 C30.830592,4.508781 30.830592,6.508781 30.830592,6.508781 C30.830592,9.822489 33.516883,12.508781 36.830592,12.508781 C36.830592,12.508781 39.830592,12.508781 39.830592,12.508781 " transform="" fill="none" stroke="#0c4532" stroke-width="2" stroke-linecap="round" stroke-linejoin="round"/>
			<path d="M39.830592,20.556735C39.830592,20.556735 39.830592,14.282276 39.830592,14.282276 " transform="matrix(1,0,0,1,0,0)" fill="none" stroke="#42654d" stroke-width="2" stroke-linecap="round" stroke-linejoin="round"/>
			<path d="M39.830592,14.508781C39.830592,11.195073 42.516883,8.508781 45.830592,8.508781 C45.830592,8.508781 48.830592,8.508781 48.830592,8.508781 C48.830592,8.508781 48.830592,9.508781 48.830592,9.508781 C48.830592,12.822489 46.144301,15.508781 42.830592,15.508781 C42.830592,15.508781 39.830592,15.508781 39.830592,15.508781 " transform="" fill="none" stroke="#42654d" stroke-width="2" stroke-linecap="round" stroke-linejoin="round"/>
		</g>
		<g transform="matrix(13.351626866,0,0,13.351626866,-381.803196118,-17.012573988)">
			<path d="M0,0C0,0 24,0 24,0 C24,0 24,24 24,24 C24,24 0,24 0,24 C0,24 0,0 0,0 Z" transform="matrix(1,0,0,1,27.830591541,7.301331385)" fill="none"/>
			<path d="M39.830592,10.508781C39.830592,7.195073 37.1443,4.508781 33.830592,4.508781 C33.830592,4.508781 30.830592,4.508781 30.830592,4.508781 C30.830592,4.508781 30.830592,6.508781 30.830592,6.508781 C30.830592,9.822489 33.516883,12.508781 36.830592,12.508781 C36.830592,12.508781 39.830592,12.508781 39.830592,12.508781 " transform="" fill="none" stroke="#0c4532" stroke-width="2" stroke-linecap="round" stroke-linejoin="round"/>
			<path d="M39.830592,20.556735C39.830592,20.556735 39.830592,14.282276 39.830592,14.282276 " transform="matrix(1,0,0,1,0,0)" fill="none" stroke="#42654d" stroke-width="2" stroke-linecap="round" stroke-linejoin="round"/>
			<path d="M39.830592,14.508781C39.830592,11.195073 42.516883,8.508781 45.830592,8.508781 C45.830592,8.508781 48.830592,8.508781 48.830592,8.508781 C48.830592,8.508781 48.830592,9.508781 48.830592,9.508781 C48.830592,12.822489 46.144301,15.508781 42.830592,15.508781 C42.830592,15.508781 39.830592,15.508781 39.830592,15.508781 " transform="" fill="none" stroke="#42654d" stroke-width="2" stroke-linecap="round" stroke-linejoin="round"/>
		</g>
	</g>
</g></g></svg>